{"glyphs":{"0":{"ha":1736,"x_min":69,"x_max":1318,"o":"m 174 69 q 104 99 138 69 q 69 174 69 132 q 99 240 69 206 q 174 277 133 277 q 240 247 206 277 q 277 174 277 213 q 247 99 277 130 q 174 69 217 69 l 174 69 m 521 69 q 452 99 486 69 q 416 174 416 132 q 446 240 416 206 q 521 277 480 277 q 587 247 553 277 q 624 174 624 213 q 594 99 624 130 q 521 69 564 69 l 521 69 m 521 416 q 452 446 486 416 q 416 521 416 479 q 446 587 416 553 q 521 624 480 624 q 587 594 553 624 q 624 521 624 560 q 594 446 624 477 q 521 416 564 416 l 521 416 m 868 416 q 799 446 833 416 q 764 521 764 479 q 793 587 764 553 q 868 624 827 624 q 935 594 901 624 q 971 521 971 560 q 941 446 971 477 q 868 416 911 416 l 868 416 m 1215 416 q 1146 446 1180 416 q 1111 521 1111 479 q 1141 587 1111 553 q 1215 624 1175 624 q 1282 594 1248 624 q 1318 521 1318 560 q 1289 446 1318 477 q 1215 416 1259 416 l 1215 416 m 521 764 q 452 793 486 764 q 416 868 416 826 q 446 935 416 901 q 521 971 480 971 q 587 941 553 971 q 624 868 624 907 q 594 793 624 825 q 521 764 564 764 l 521 764 m 1215 764 q 1146 793 1180 764 q 1111 868 1111 826 q 1141 935 1111 901 q 1215 971 1175 971 q 1282 941 1248 971 q 1318 868 1318 907 q 1289 793 1318 825 q 1215 764 1259 764 l 1215 764 z "},"1":{"ha":1389,"x_min":69,"x_max":971,"o":"m 174 69 q 104 99 138 69 q 69 174 69 132 q 99 240 69 206 q 174 277 133 277 q 240 247 206 277 q 277 174 277 213 q 247 99 277 130 q 174 69 217 69 l 174 69 m 521 69 q 452 99 486 69 q 416 174 416 132 q 446 240 416 206 q 521 277 480 277 q 587 247 553 277 q 624 174 624 213 q 594 99 624 130 q 521 69 564 69 l 521 69 m 521 416 q 452 446 486 416 q 416 521 416 479 q 446 587 416 553 q 521 624 480 624 q 587 594 553 624 q 624 521 624 560 q 594 446 624 477 q 521 416 564 416 l 521 416 m 521 764 q 452 793 486 764 q 416 868 416 826 q 446 935 416 901 q 521 971 480 971 q 587 941 553 971 q 624 868 624 907 q 594 793 624 825 q 521 764 564 764 l 521 764 m 868 764 q 799 793 833 764 q 764 868 764 826 q 793 935 764 901 q 868 971 827 971 q 935 941 901 971 q 971 868 971 907 q 941 793 971 825 q 868 764 911 764 l 868 764 z "},"2":{"ha":1389,"x_min":69,"x_max":971,"o":"m 174 69 q 104 99 138 69 q 69 174 69 132 q 99 240 69 206 q 174 277 133 277 q 240 247 206 277 q 277 174 277 213 q 247 99 277 130 q 174 69 217 69 l 174 69 m 521 69 q 452 99 486 69 q 416 174 416 132 q 446 240 416 206 q 521 277 480 277 q 587 247 553 277 q 624 174 624 213 q 594 99 624 130 q 521 69 564 69 l 521 69 m 521 416 q 452 446 486 416 q 416 521 416 479 q 446 587 416 553 q 521 624 480 624 q 587 594 553 624 q 624 521 624 560 q 594 446 624 477 q 521 416 564 416 l 521 416 m 868 416 q 799 446 833 416 q 764 521 764 479 q 793 587 764 553 q 868 624 827 624 q 935 594 901 624 q 971 521 971 560 q 941 446 971 477 q 868 416 911 416 l 868 416 m 521 764 q 452 793 486 764 q 416 868 416 826 q 446 935 416 901 q 521 971 480 971 q 587 941 553 971 q 624 868 624 907 q 594 793 624 825 q 521 764 564 764 l 521 764 m 868 764 q 799 793 833 764 q 764 868 764 826 q 793 935 764 901 q 868 971 827 971 q 935 941 901 971 q 971 868 971 907 q 941 793 971 825 q 868 764 911 764 l 868 764 z "},"3":{"ha":1736,"x_min":69,"x_max":1318,"o":"m 174 69 q 104 99 138 69 q 69 174 69 132 q 99 240 69 206 q 174 277 133 277 q 240 247 206 277 q 277 174 277 213 q 247 99 277 130 q 174 69 217 69 l 174 69 m 521 69 q 452 99 486 69 q 416 174 416 132 q 446 240 416 206 q 521 277 480 277 q 587 247 553 277 q 624 174 624 213 q 594 99 624 130 q 521 69 564 69 l 521 69 m 521 416 q 452 446 486 416 q 416 521 416 479 q 446 587 416 553 q 521 624 480 624 q 587 594 553 624 q 624 521 624 560 q 594 446 624 477 q 521 416 564 416 l 521 416 m 521 764 q 452 793 486 764 q 416 868 416 826 q 446 935 416 901 q 521 971 480 971 q 587 941 553 971 q 624 868 624 907 q 594 793 624 825 q 521 764 564 764 l 521 764 m 868 764 q 799 793 833 764 q 764 868 764 826 q 793 935 764 901 q 868 971 827 971 q 935 941 901 971 q 971 868 971 907 q 941 793 971 825 q 868 764 911 764 l 868 764 m 1215 764 q 1146 793 1180 764 q 1111 868 1111 826 q 1141 935 1111 901 q 1215 971 1175 971 q 1282 941 1248 971 q 1318 868 1318 907 q 1289 793 1318 825 q 1215 764 1259 764 l 1215 764 z "},"4":{"ha":1736,"x_min":69,"x_max":1318,"o":"m 174 69 q 104 99 138 69 q 69 174 69 132 q 99 240 69 206 q 174 277 133 277 q 240 247 206 277 q 277 174 277 213 q 247 99 277 130 q 174 69 217 69 l 174 69 m 521 69 q 452 99 486 69 q 416 174 416 132 q 446 240 416 206 q 521 277 480 277 q 587 247 553 277 q 624 174 624 213 q 594 99 624 130 q 521 69 564 69 l 521 69 m 521 416 q 452 446 486 416 q 416 521 416 479 q 446 587 416 553 q 521 624 480 624 q 587 594 553 624 q 624 521 624 560 q 594 446 624 477 q 521 416 564 416 l 521 416 m 1215 416 q 1146 446 1180 416 q 1111 521 1111 479 q 1141 587 1111 553 q 1215 624 1175 624 q 1282 594 1248 624 q 1318 521 1318 560 q 1289 446 1318 477 q 1215 416 1259 416 l 1215 416 m 521 764 q 452 793 486 764 q 416 868 416 826 q 446 935 416 901 q 521 971 480 971 q 587 941 553 971 q 624 868 624 907 q 594 793 624 825 q 521 764 564 764 l 521 764 m 868 764 q 799 793 833 764 q 764 868 764 826 q 793 935 764 901 q 868 971 827 971 q 935 941 901 971 q 971 868 971 907 q 941 793 971 825 q 868 764 911 764 l 868 764 m 1215 764 q 1146 793 1180 764 q 1111 868 1111 826 q 1141 935 1111 901 q 1215 971 1175 971 q 1282 941 1248 971 q 1318 868 1318 907 q 1289 793 1318 825 q 1215 764 1259 764 l 1215 764 z "},"5":{"ha":1736,"x_min":69,"x_max":1318,"o":"m 174 69 q 104 99 138 69 q 69 174 69 132 q 99 240 69 206 q 174 277 133 277 q 240 247 206 277 q 277 174 277 213 q 247 99 277 130 q 174 69 217 69 l 174 69 m 521 69 q 452 99 486 69 q 416 174 416 132 q 446 240 416 206 q 521 277 480 277 q 587 247 553 277 q 624 174 624 213 q 594 99 624 130 q 521 69 564 69 l 521 69 m 521 416 q 452 446 486 416 q 416 521 416 479 q 446 587 416 553 q 521 624 480 624 q 587 594 553 624 q 624 521 624 560 q 594 446 624 477 q 521 416 564 416 l 521 416 m 1215 416 q 1146 446 1180 416 q 1111 521 1111 479 q 1141 587 1111 553 q 1215 624 1175 624 q 1282 594 1248 624 q 1318 521 1318 560 q 1289 446 1318 477 q 1215 416 1259 416 l 1215 416 m 521 764 q 452 793 486 764 q 416 868 416 826 q 446 935 416 901 q 521 971 480 971 q 587 941 553 971 q 624 868 624 907 q 594 793 624 825 q 521 764 564 764 l 521 764 m 868 764 q 799 793 833 764 q 764 868 764 826 q 793 935 764 901 q 868 971 827 971 q 935 941 901 971 q 971 868 971 907 q 941 793 971 825 q 868 764 911 764 l 868 764 z "},"6":{"ha":1736,"x_min":69,"x_max":1318,"o":"m 174 69 q 104 99 138 69 q 69 174 69 132 q 99 240 69 206 q 174 277 133 277 q 240 247 206 277 q 277 174 277 213 q 247 99 277 130 q 174 69 217 69 l 174 69 m 521 69 q 452 99 486 69 q 416 174 416 132 q 446 240 416 206 q 521 277 480 277 q 587 247 553 277 q 624 174 624 213 q 594 99 624 130 q 521 69 564 69 l 521 69 m 521 416 q 452 446 486 416 q 416 521 416 479 q 446 587 416 553 q 521 624 480 624 q 587 594 553 624 q 624 521 624 560 q 594 446 624 477 q 521 416 564 416 l 521 416 m 868 416 q 799 446 833 416 q 764 521 764 479 q 793 587 764 553 q 868 624 827 624 q 935 594 901 624 q 971 521 971 560 q 941 446 971 477 q 868 416 911 416 l 868 416 m 521 764 q 452 793 486 764 q 416 868 416 826 q 446 935 416 901 q 521 971 480 971 q 587 941 553 971 q 624 868 624 907 q 594 793 624 825 q 521 764 564 764 l 521 764 m 868 764 q 799 793 833 764 q 764 868 764 826 q 793 935 764 901 q 868 971 827 971 q 935 941 901 971 q 971 868 971 907 q 941 793 971 825 q 868 764 911 764 l 868 764 m 1215 764 q 1146 793 1180 764 q 1111 868 1111 826 q 1141 935 1111 901 q 1215 971 1175 971 q 1282 941 1248 971 q 1318 868 1318 907 q 1289 793 1318 825 q 1215 764 1259 764 l 1215 764 z "},"7":{"ha":1736,"x_min":69,"x_max":1318,"o":"m 174 69 q 104 99 138 69 q 69 174 69 132 q 99 240 69 206 q 174 277 133 277 q 240 247 206 277 q 277 174 277 213 q 247 99 277 130 q 174 69 217 69 l 174 69 m 521 69 q 452 99 486 69 q 416 174 416 132 q 446 240 416 206 q 521 277 480 277 q 587 247 553 277 q 624 174 624 213 q 594 99 624 130 q 521 69 564 69 l 521 69 m 521 416 q 452 446 486 416 q 416 521 416 479 q 446 587 416 553 q 521 624 480 624 q 587 594 553 624 q 624 521 624 560 q 594 446 624 477 q 521 416 564 416 l 521 416 m 868 416 q 799 446 833 416 q 764 521 764 479 q 793 587 764 553 q 868 624 827 624 q 935 594 901 624 q 971 521 971 560 q 941 446 971 477 q 868 416 911 416 l 868 416 m 1215 416 q 1146 446 1180 416 q 1111 521 1111 479 q 1141 587 1111 553 q 1215 624 1175 624 q 1282 594 1248 624 q 1318 521 1318 560 q 1289 446 1318 477 q 1215 416 1259 416 l 1215 416 m 521 764 q 452 793 486 764 q 416 868 416 826 q 446 935 416 901 q 521 971 480 971 q 587 941 553 971 q 624 868 624 907 q 594 793 624 825 q 521 764 564 764 l 521 764 m 868 764 q 799 793 833 764 q 764 868 764 826 q 793 935 764 901 q 868 971 827 971 q 935 941 901 971 q 971 868 971 907 q 941 793 971 825 q 868 764 911 764 l 868 764 m 1215 764 q 1146 793 1180 764 q 1111 868 1111 826 q 1141 935 1111 901 q 1215 971 1175 971 q 1282 941 1248 971 q 1318 868 1318 907 q 1289 793 1318 825 q 1215 764 1259 764 l 1215 764 z "},"8":{"ha":1736,"x_min":69,"x_max":1318,"o":"m 174 69 q 104 99 138 69 q 69 174 69 132 q 99 240 69 206 q 174 277 133 277 q 240 247 206 277 q 277 174 277 213 q 247 99 277 130 q 174 69 217 69 l 174 69 m 521 69 q 452 99 486 69 q 416 174 416 132 q 446 240 416 206 q 521 277 480 277 q 587 247 553 277 q 624 174 624 213 q 594 99 624 130 q 521 69 564 69 l 521 69 m 521 416 q 452 446 486 416 q 416 521 416 479 q 446 587 416 553 q 521 624 480 624 q 587 594 553 624 q 624 521 624 560 q 594 446 624 477 q 521 416 564 416 l 521 416 m 868 416 q 799 446 833 416 q 764 521 764 479 q 793 587 764 553 q 868 624 827 624 q 935 594 901 624 q 971 521 971 560 q 941 446 971 477 q 868 416 911 416 l 868 416 m 1215 416 q 1146 446 1180 416 q 1111 521 1111 479 q 1141 587 1111 553 q 1215 624 1175 624 q 1282 594 1248 624 q 1318 521 1318 560 q 1289 446 1318 477 q 1215 416 1259 416 l 1215 416 m 521 764 q 452 793 486 764 q 416 868 416 826 q 446 935 416 901 q 521 971 480 971 q 587 941 553 971 q 624 868 624 907 q 594 793 624 825 q 521 764 564 764 l 521 764 m 868 764 q 799 793 833 764 q 764 868 764 826 q 793 935 764 901 q 868 971 827 971 q 935 941 901 971 q 971 868 971 907 q 941 793 971 825 q 868 764 911 764 l 868 764 z "},"9":{"ha":1736,"x_min":69,"x_max":1318,"o":"m 174 69 q 104 99 138 69 q 69 174 69 132 q 99 240 69 206 q 174 277 133 277 q 240 247 206 277 q 277 174 277 213 q 247 99 277 130 q 174 69 217 69 l 174 69 m 521 69 q 452 99 486 69 q 416 174 416 132 q 446 240 416 206 q 521 277 480 277 q 587 247 553 277 q 624 174 624 213 q 594 99 624 130 q 521 69 564 69 l 521 69 m 521 416 q 452 446 486 416 q 416 521 416 479 q 446 587 416 553 q 521 624 480 624 q 587 594 553 624 q 624 521 624 560 q 594 446 624 477 q 521 416 564 416 l 521 416 m 868 416 q 799 446 833 416 q 764 521 764 479 q 793 587 764 553 q 868 624 827 624 q 935 594 901 624 q 971 521 971 560 q 941 446 971 477 q 868 416 911 416 l 868 416 m 521 764 q 452 793 486 764 q 416 868 416 826 q 446 935 416 901 q 521 971 480 971 q 587 941 553 971 q 624 868 624 907 q 594 793 624 825 q 521 764 564 764 l 521 764 m 1215 764 q 1146 793 1180 764 q 1111 868 1111 826 q 1141 935 1111 901 q 1215 971 1175 971 q 1282 941 1248 971 q 1318 868 1318 907 q 1289 793 1318 825 q 1215 764 1259 764 l 1215 764 z "}," ":{"ha":347,"x_min":0,"x_max":0,"o":""},"!":{"ha":1042,"x_min":69,"x_max":624,"o":"m 174 69 q 104 99 138 69 q 69 174 69 132 q 99 240 69 206 q 174 277 133 277 q 240 247 206 277 q 277 174 277 213 q 247 99 277 130 q 174 69 217 69 l 174 69 m 174 416 q 104 446 138 416 q 69 521 69 479 q 99 587 69 553 q 174 624 133 624 q 240 594 206 624 q 277 521 277 560 q 247 446 277 477 q 174 416 217 416 l 174 416 m 521 416 q 452 446 486 416 q 416 521 416 479 q 446 587 416 553 q 521 624 480 624 q 587 594 553 624 q 624 521 624 560 q 594 446 624 477 q 521 416 564 416 l 521 416 z "},"'":{"ha":694,"x_min":69,"x_max":277,"o":"m 174 69 q 104 99 138 69 q 69 174 69 132 q 99 240 69 206 q 174 277 133 277 q 240 247 206 277 q 277 174 277 213 q 247 99 277 130 q 174 69 217 69 l 174 69 z "},"*":{"ha":1736,"x_min":69,"x_max":1318,"o":"m 174 69 q 104 99 138 69 q 69 174 69 132 q 99 240 69 206 q 174 277 133 277 q 240 247 206 277 q 277 174 277 213 q 247 99 277 130 q 174 69 217 69 l 174 69 m 868 69 q 799 99 833 69 q 764 174 764 132 q 793 240 764 206 q 868 277 827 277 q 935 247 901 277 q 971 174 971 213 q 941 99 971 130 q 868 69 911 69 l 868 69 m 521 416 q 452 446 486 416 q 416 521 416 479 q 446 587 416 553 q 521 624 480 624 q 587 594 553 624 q 624 521 624 560 q 594 446 624 477 q 521 416 564 416 l 521 416 m 1215 416 q 1146 446 1180 416 q 1111 521 1111 479 q 1141 587 1111 553 q 1215 624 1175 624 q 1282 594 1248 624 q 1318 521 1318 560 q 1289 446 1318 477 q 1215 416 1259 416 l 1215 416 z "},",":{"ha":3124,"x_min":69,"x_max":2707,"o":"m 174 416 q 104 446 138 416 q 69 521 69 479 q 99 587 69 553 q 174 624 133 624 q 240 594 206 624 q 277 521 277 560 q 247 446 277 477 q 174 416 217 416 l 174 416 m 2604 764 q 2535 793 2569 764 q 2500 868 2500 826 q 2530 935 2500 901 q 2604 971 2563 971 q 2671 941 2637 971 q 2707 868 2707 907 q 2677 793 2707 825 q 2604 764 2648 764 l 2604 764 z "},"-":{"ha":1042,"x_min":69,"x_max":624,"o":"m 174 69 q 104 99 138 69 q 69 174 69 132 q 99 240 69 206 q 174 277 133 277 q 240 247 206 277 q 277 174 277 213 q 247 99 277 130 q 174 69 217 69 l 174 69 m 521 69 q 452 99 486 69 q 416 174 416 132 q 446 240 416 206 q 521 277 480 277 q 587 247 553 277 q 624 174 624 213 q 594 99 624 130 q 521 69 564 69 l 521 69 z "},".":{"ha":1042,"x_min":69,"x_max":624,"o":"m 521 69 q 452 99 486 69 q 416 174 416 132 q 446 240 416 206 q 521 277 480 277 q 587 247 553 277 q 624 174 624 213 q 594 99 624 130 q 521 69 564 69 l 521 69 m 174 416 q 104 446 138 416 q 69 521 69 479 q 99 587 69 553 q 174 624 133 624 q 240 594 206 624 q 277 521 277 560 q 247 446 277 477 q 174 416 217 416 l 174 416 m 521 416 q 452 446 486 416 q 416 521 416 479 q 446 587 416 553 q 521 624 480 624 q 587 594 553 624 q 624 521 624 560 q 594 446 624 477 q 521 416 564 416 l 521 416 z "},"?":{"ha":1042,"x_min":69,"x_max":624,"o":"m 174 69 q 104 99 138 69 q 69 174 69 132 q 99 240 69 206 q 174 277 133 277 q 240 247 206 277 q 277 174 277 213 q 247 99 277 130 q 174 69 217 69 l 174 69 m 521 69 q 452 99 486 69 q 416 174 416 132 q 446 240 416 206 q 521 277 480 277 q 587 247 553 277 q 624 174 624 213 q 594 99 624 130 q 521 69 564 69 l 521 69 m 174 416 q 104 446 138 416 q 69 521 69 479 q 99 587 69 553 q 174 624 133 624 q 240 594 206 624 q 277 521 277 560 q 247 446 277 477 q 174 416 217 416 l 174 416 z "},"A":{"ha":694,"x_min":69,"x_max":277,"o":"m 174 764 q 104 793 138 764 q 69 868 69 826 q 99 935 69 901 q 174 971 133 971 q 240 941 206 971 q 277 868 277 907 q 247 793 277 825 q 174 764 217 764 l 174 764 z "},"B":{"ha":694,"x_min":69,"x_max":277,"o":"m 174 416 q 104 446 138 416 q 69 521 69 479 q 99 587 69 553 q 174 624 133 624 q 240 594 206 624 q 277 521 277 560 q 247 446 277 477 q 174 416 217 416 l 174 416 m 174 764 q 104 793 138 764 q 69 868 69 826 q 99 935 69 901 q 174 971 133 971 q 240 941 206 971 q 277 868 277 907 q 247 793 277 825 q 174 764 217 764 l 174 764 z "},"C":{"ha":1042,"x_min":69,"x_max":624,"o":"m 174 764 q 104 793 138 764 q 69 868 69 826 q 99 935 69 901 q 174 971 133 971 q 240 941 206 971 q 277 868 277 907 q 247 793 277 825 q 174 764 217 764 l 174 764 m 521 764 q 452 793 486 764 q 416 868 416 826 q 446 935 416 901 q 521 971 480 971 q 587 941 553 971 q 624 868 624 907 q 594 793 624 825 q 521 764 564 764 l 521 764 z "},"D":{"ha":1042,"x_min":69,"x_max":624,"o":"m 521 416 q 452 446 486 416 q 416 521 416 479 q 446 587 416 553 q 521 624 480 624 q 587 594 553 624 q 624 521 624 560 q 594 446 624 477 q 521 416 564 416 l 521 416 m 174 764 q 104 793 138 764 q 69 868 69 826 q 99 935 69 901 q 174 971 133 971 q 240 941 206 971 q 277 868 277 907 q 247 793 277 825 q 174 764 217 764 l 174 764 m 521 764 q 452 793 486 764 q 416 868 416 826 q 446 935 416 901 q 521 971 480 971 q 587 941 553 971 q 624 868 624 907 q 594 793 624 825 q 521 764 564 764 l 521 764 z "},"E":{"ha":1042,"x_min":69,"x_max":624,"o":"m 521 416 q 452 446 486 416 q 416 521 416 479 q 446 587 416 553 q 521 624 480 624 q 587 594 553 624 q 624 521 624 560 q 594 446 624 477 q 521 416 564 416 l 521 416 m 174 764 q 104 793 138 764 q 69 868 69 826 q 99 935 69 901 q 174 971 133 971 q 240 941 206 971 q 277 868 277 907 q 247 793 277 825 q 174 764 217 764 l 174 764 z "},"F":{"ha":1042,"x_min":69,"x_max":624,"o":"m 174 416 q 104 446 138 416 q 69 521 69 479 q 99 587 69 553 q 174 624 133 624 q 240 594 206 624 q 277 521 277 560 q 247 446 277 477 q 174 416 217 416 l 174 416 m 174 764 q 104 793 138 764 q 69 868 69 826 q 99 935 69 901 q 174 971 133 971 q 240 941 206 971 q 277 868 277 907 q 247 793 277 825 q 174 764 217 764 l 174 764 m 521 764 q 452 793 486 764 q 416 868 416 826 q 446 935 416 901 q 521 971 480 971 q 587 941 553 971 q 624 868 624 907 q 594 793 624 825 q 521 764 564 764 l 521 764 z "},"G":{"ha":1042,"x_min":69,"x_max":624,"o":"m 174 416 q 104 446 138 416 q 69 521 69 479 q 99 587 69 553 q 174 624 133 624 q 240 594 206 624 q 277 521 277 560 q 247 446 277 477 q 174 416 217 416 l 174 416 m 521 416 q 452 446 486 416 q 416 521 416 479 q 446 587 416 553 q 521 624 480 624 q 587 594 553 624 q 624 521 624 560 q 594 446 624 477 q 521 416 564 416 l 521 416 m 174 764 q 104 793 138 764 q 69 868 69 826 q 99 935 69 901 q 174 971 133 971 q 240 941 206 971 q 277 868 277 907 q 247 793 277 825 q 174 764 217 764 l 174 764 m 521 764 q 452 793 486 764 q 416 868 416 826 q 446 935 416 901 q 521 971 480 971 q 587 941 553 971 q 624 868 624 907 q 594 793 624 825 q 521 764 564 764 l 521 764 z "},"H":{"ha":1042,"x_min":69,"x_max":624,"o":"m 174 416 q 104 446 138 416 q 69 521 69 479 q 99 587 69 553 q 174 624 133 624 q 240 594 206 624 q 277 521 277 560 q 247 446 277 477 q 174 416 217 416 l 174 416 m 521 416 q 452 446 486 416 q 416 521 416 479 q 446 587 416 553 q 521 624 480 624 q 587 594 553 624 q 624 521 624 560 q 594 446 624 477 q 521 416 564 416 l 521 416 m 174 764 q 104 793 138 764 q 69 868 69 826 q 99 935 69 901 q 174 971 133 971 q 240 941 206 971 q 277 868 277 907 q 247 793 277 825 q 174 764 217 764 l 174 764 z "},"I":{"ha":1042,"x_min":69,"x_max":624,"o":"m 174 416 q 104 446 138 416 q 69 521 69 479 q 99 587 69 553 q 174 624 133 624 q 240 594 206 624 q 277 521 277 560 q 247 446 277 477 q 174 416 217 416 l 174 416 m 521 764 q 452 793 486 764 q 416 868 416 826 q 446 935 416 901 q 521 971 480 971 q 587 941 553 971 q 624 868 624 907 q 594 793 624 825 q 521 764 564 764 l 521 764 z "},"J":{"ha":1042,"x_min":69,"x_max":624,"o":"m 174 416 q 104 446 138 416 q 69 521 69 479 q 99 587 69 553 q 174 624 133 624 q 240 594 206 624 q 277 521 277 560 q 247 446 277 477 q 174 416 217 416 l 174 416 m 521 416 q 452 446 486 416 q 416 521 416 479 q 446 587 416 553 q 521 624 480 624 q 587 594 553 624 q 624 521 624 560 q 594 446 624 477 q 521 416 564 416 l 521 416 m 521 764 q 452 793 486 764 q 416 868 416 826 q 446 935 416 901 q 521 971 480 971 q 587 941 553 971 q 624 868 624 907 q 594 793 624 825 q 521 764 564 764 l 521 764 z "},"K":{"ha":694,"x_min":69,"x_max":277,"o":"m 174 69 q 104 99 138 69 q 69 174 69 132 q 99 240 69 206 q 174 277 133 277 q 240 247 206 277 q 277 174 277 213 q 247 99 277 130 q 174 69 217 69 l 174 69 m 174 764 q 104 793 138 764 q 69 868 69 826 q 99 935 69 901 q 174 971 133 971 q 240 941 206 971 q 277 868 277 907 q 247 793 277 825 q 174 764 217 764 l 174 764 z "},"L":{"ha":694,"x_min":69,"x_max":277,"o":"m 174 69 q 104 99 138 69 q 69 174 69 132 q 99 240 69 206 q 174 277 133 277 q 240 247 206 277 q 277 174 277 213 q 247 99 277 130 q 174 69 217 69 l 174 69 m 174 416 q 104 446 138 416 q 69 521 69 479 q 99 587 69 553 q 174 624 133 624 q 240 594 206 624 q 277 521 277 560 q 247 446 277 477 q 174 416 217 416 l 174 416 m 174 764 q 104 793 138 764 q 69 868 69 826 q 99 935 69 901 q 174 971 133 971 q 240 941 206 971 q 277 868 277 907 q 247 793 277 825 q 174 764 217 764 l 174 764 z "},"M":{"ha":1042,"x_min":69,"x_max":624,"o":"m 174 69 q 104 99 138 69 q 69 174 69 132 q 99 240 69 206 q 174 277 133 277 q 240 247 206 277 q 277 174 277 213 q 247 99 277 130 q 174 69 217 69 l 174 69 m 174 764 q 104 793 138 764 q 69 868 69 826 q 99 935 69 901 q 174 971 133 971 q 240 941 206 971 q 277 868 277 907 q 247 793 277 825 q 174 764 217 764 l 174 764 m 521 764 q 452 793 486 764 q 416 868 416 826 q 446 935 416 901 q 521 971 480 971 q 587 941 553 971 q 624 868 624 907 q 594 793 624 825 q 521 764 564 764 l 521 764 z "},"N":{"ha":1042,"x_min":69,"x_max":624,"o":"m 174 69 q 104 99 138 69 q 69 174 69 132 q 99 240 69 206 q 174 277 133 277 q 240 247 206 277 q 277 174 277 213 q 247 99 277 130 q 174 69 217 69 l 174 69 m 521 416 q 452 446 486 416 q 416 521 416 479 q 446 587 416 553 q 521 624 480 624 q 587 594 553 624 q 624 521 624 560 q 594 446 624 477 q 521 416 564 416 l 521 416 m 174 764 q 104 793 138 764 q 69 868 69 826 q 99 935 69 901 q 174 971 133 971 q 240 941 206 971 q 277 868 277 907 q 247 793 277 825 q 174 764 217 764 l 174 764 m 521 764 q 452 793 486 764 q 416 868 416 826 q 446 935 416 901 q 521 971 480 971 q 587 941 553 971 q 624 868 624 907 q 594 793 624 825 q 521 764 564 764 l 521 764 z "},"O":{"ha":1042,"x_min":69,"x_max":624,"o":"m 174 69 q 104 99 138 69 q 69 174 69 132 q 99 240 69 206 q 174 277 133 277 q 240 247 206 277 q 277 174 277 213 q 247 99 277 130 q 174 69 217 69 l 174 69 m 521 416 q 452 446 486 416 q 416 521 416 479 q 446 587 416 553 q 521 624 480 624 q 587 594 553 624 q 624 521 624 560 q 594 446 624 477 q 521 416 564 416 l 521 416 m 174 764 q 104 793 138 764 q 69 868 69 826 q 99 935 69 901 q 174 971 133 971 q 240 941 206 971 q 277 868 277 907 q 247 793 277 825 q 174 764 217 764 l 174 764 z "},"P":{"ha":1042,"x_min":69,"x_max":624,"o":"m 174 69 q 104 99 138 69 q 69 174 69 132 q 99 240 69 206 q 174 277 133 277 q 240 247 206 277 q 277 174 277 213 q 247 99 277 130 q 174 69 217 69 l 174 69 m 174 416 q 104 446 138 416 q 69 521 69 479 q 99 587 69 553 q 174 624 133 624 q 240 594 206 624 q 277 521 277 560 q 247 446 277 477 q 174 416 217 416 l 174 416 m 174 764 q 104 793 138 764 q 69 868 69 826 q 99 935 69 901 q 174 971 133 971 q 240 941 206 971 q 277 868 277 907 q 247 793 277 825 q 174 764 217 764 l 174 764 m 521 764 q 452 793 486 764 q 416 868 416 826 q 446 935 416 901 q 521 971 480 971 q 587 941 553 971 q 624 868 624 907 q 594 793 624 825 q 521 764 564 764 l 521 764 z "},"Q":{"ha":1042,"x_min":69,"x_max":624,"o":"m 174 69 q 104 99 138 69 q 69 174 69 132 q 99 240 69 206 q 174 277 133 277 q 240 247 206 277 q 277 174 277 213 q 247 99 277 130 q 174 69 217 69 l 174 69 m 174 416 q 104 446 138 416 q 69 521 69 479 q 99 587 69 553 q 174 624 133 624 q 240 594 206 624 q 277 521 277 560 q 247 446 277 477 q 174 416 217 416 l 174 416 m 521 416 q 452 446 486 416 q 416 521 416 479 q 446 587 416 553 q 521 624 480 624 q 587 594 553 624 q 624 521 624 560 q 594 446 624 477 q 521 416 564 416 l 521 416 m 174 764 q 104 793 138 764 q 69 868 69 826 q 99 935 69 901 q 174 971 133 971 q 240 941 206 971 q 277 868 277 907 q 247 793 277 825 q 174 764 217 764 l 174 764 m 521 764 q 452 793 486 764 q 416 868 416 826 q 446 935 416 901 q 521 971 480 971 q 587 941 553 971 q 624 868 624 907 q 594 793 624 825 q 521 764 564 764 l 521 764 z "},"R":{"ha":1042,"x_min":69,"x_max":624,"o":"m 174 69 q 104 99 138 69 q 69 174 69 132 q 99 240 69 206 q 174 277 133 277 q 240 247 206 277 q 277 174 277 213 q 247 99 277 130 q 174 69 217 69 l 174 69 m 174 416 q 104 446 138 416 q 69 521 69 479 q 99 587 69 553 q 174 624 133 624 q 240 594 206 624 q 277 521 277 560 q 247 446 277 477 q 174 416 217 416 l 174 416 m 521 416 q 452 446 486 416 q 416 521 416 479 q 446 587 416 553 q 521 624 480 624 q 587 594 553 624 q 624 521 624 560 q 594 446 624 477 q 521 416 564 416 l 521 416 m 174 764 q 104 793 138 764 q 69 868 69 826 q 99 935 69 901 q 174 971 133 971 q 240 941 206 971 q 277 868 277 907 q 247 793 277 825 q 174 764 217 764 l 174 764 z "},"S":{"ha":1042,"x_min":69,"x_max":624,"o":"m 174 69 q 104 99 138 69 q 69 174 69 132 q 99 240 69 206 q 174 277 133 277 q 240 247 206 277 q 277 174 277 213 q 247 99 277 130 q 174 69 217 69 l 174 69 m 174 416 q 104 446 138 416 q 69 521 69 479 q 99 587 69 553 q 174 624 133 624 q 240 594 206 624 q 277 521 277 560 q 247 446 277 477 q 174 416 217 416 l 174 416 m 521 764 q 452 793 486 764 q 416 868 416 826 q 446 935 416 901 q 521 971 480 971 q 587 941 553 971 q 624 868 624 907 q 594 793 624 825 q 521 764 564 764 l 521 764 z "},"T":{"ha":1042,"x_min":69,"x_max":624,"o":"m 174 69 q 104 99 138 69 q 69 174 69 132 q 99 240 69 206 q 174 277 133 277 q 240 247 206 277 q 277 174 277 213 q 247 99 277 130 q 174 69 217 69 l 174 69 m 174 416 q 104 446 138 416 q 69 521 69 479 q 99 587 69 553 q 174 624 133 624 q 240 594 206 624 q 277 521 277 560 q 247 446 277 477 q 174 416 217 416 l 174 416 m 521 416 q 452 446 486 416 q 416 521 416 479 q 446 587 416 553 q 521 624 480 624 q 587 594 553 624 q 624 521 624 560 q 594 446 624 477 q 521 416 564 416 l 521 416 m 521 764 q 452 793 486 764 q 416 868 416 826 q 446 935 416 901 q 521 971 480 971 q 587 941 553 971 q 624 868 624 907 q 594 793 624 825 q 521 764 564 764 l 521 764 z "},"U":{"ha":1042,"x_min":69,"x_max":624,"o":"m 174 69 q 104 99 138 69 q 69 174 69 132 q 99 240 69 206 q 174 277 133 277 q 240 247 206 277 q 277 174 277 213 q 247 99 277 130 q 174 69 217 69 l 174 69 m 521 69 q 452 99 486 69 q 416 174 416 132 q 446 240 416 206 q 521 277 480 277 q 587 247 553 277 q 624 174 624 213 q 594 99 624 130 q 521 69 564 69 l 521 69 m 174 764 q 104 793 138 764 q 69 868 69 826 q 99 935 69 901 q 174 971 133 971 q 240 941 206 971 q 277 868 277 907 q 247 793 277 825 q 174 764 217 764 l 174 764 z "},"V":{"ha":1042,"x_min":69,"x_max":624,"o":"m 174 69 q 104 99 138 69 q 69 174 69 132 q 99 240 69 206 q 174 277 133 277 q 240 247 206 277 q 277 174 277 213 q 247 99 277 130 q 174 69 217 69 l 174 69 m 521 69 q 452 99 486 69 q 416 174 416 132 q 446 240 416 206 q 521 277 480 277 q 587 247 553 277 q 624 174 624 213 q 594 99 624 130 q 521 69 564 69 l 521 69 m 174 416 q 104 446 138 416 q 69 521 69 479 q 99 587 69 553 q 174 624 133 624 q 240 594 206 624 q 277 521 277 560 q 247 446 277 477 q 174 416 217 416 l 174 416 m 174 764 q 104 793 138 764 q 69 868 69 826 q 99 935 69 901 q 174 971 133 971 q 240 941 206 971 q 277 868 277 907 q 247 793 277 825 q 174 764 217 764 l 174 764 z "},"W":{"ha":1042,"x_min":69,"x_max":624,"o":"m 521 69 q 452 99 486 69 q 416 174 416 132 q 446 240 416 206 q 521 277 480 277 q 587 247 553 277 q 624 174 624 213 q 594 99 624 130 q 521 69 564 69 l 521 69 m 174 416 q 104 446 138 416 q 69 521 69 479 q 99 587 69 553 q 174 624 133 624 q 240 594 206 624 q 277 521 277 560 q 247 446 277 477 q 174 416 217 416 l 174 416 m 521 416 q 452 446 486 416 q 416 521 416 479 q 446 587 416 553 q 521 624 480 624 q 587 594 553 624 q 624 521 624 560 q 594 446 624 477 q 521 416 564 416 l 521 416 m 521 764 q 452 793 486 764 q 416 868 416 826 q 446 935 416 901 q 521 971 480 971 q 587 941 553 971 q 624 868 624 907 q 594 793 624 825 q 521 764 564 764 l 521 764 z "},"X":{"ha":1042,"x_min":69,"x_max":624,"o":"m 174 69 q 104 99 138 69 q 69 174 69 132 q 99 240 69 206 q 174 277 133 277 q 240 247 206 277 q 277 174 277 213 q 247 99 277 130 q 174 69 217 69 l 174 69 m 521 69 q 452 99 486 69 q 416 174 416 132 q 446 240 416 206 q 521 277 480 277 q 587 247 553 277 q 624 174 624 213 q 594 99 624 130 q 521 69 564 69 l 521 69 m 174 764 q 104 793 138 764 q 69 868 69 826 q 99 935 69 901 q 174 971 133 971 q 240 941 206 971 q 277 868 277 907 q 247 793 277 825 q 174 764 217 764 l 174 764 m 521 764 q 452 793 486 764 q 416 868 416 826 q 446 935 416 901 q 521 971 480 971 q 587 941 553 971 q 624 868 624 907 q 594 793 624 825 q 521 764 564 764 l 521 764 z "},"Y":{"ha":1042,"x_min":69,"x_max":624,"o":"m 174 69 q 104 99 138 69 q 69 174 69 132 q 99 240 69 206 q 174 277 133 277 q 240 247 206 277 q 277 174 277 213 q 247 99 277 130 q 174 69 217 69 l 174 69 m 521 69 q 452 99 486 69 q 416 174 416 132 q 446 240 416 206 q 521 277 480 277 q 587 247 553 277 q 624 174 624 213 q 594 99 624 130 q 521 69 564 69 l 521 69 m 521 416 q 452 446 486 416 q 416 521 416 479 q 446 587 416 553 q 521 624 480 624 q 587 594 553 624 q 624 521 624 560 q 594 446 624 477 q 521 416 564 416 l 521 416 m 174 764 q 104 793 138 764 q 69 868 69 826 q 99 935 69 901 q 174 971 133 971 q 240 941 206 971 q 277 868 277 907 q 247 793 277 825 q 174 764 217 764 l 174 764 m 521 764 q 452 793 486 764 q 416 868 416 826 q 446 935 416 901 q 521 971 480 971 q 587 941 553 971 q 624 868 624 907 q 594 793 624 825 q 521 764 564 764 l 521 764 z "},"Z":{"ha":1042,"x_min":69,"x_max":624,"o":"m 174 69 q 104 99 138 69 q 69 174 69 132 q 99 240 69 206 q 174 277 133 277 q 240 247 206 277 q 277 174 277 213 q 247 99 277 130 q 174 69 217 69 l 174 69 m 521 69 q 452 99 486 69 q 416 174 416 132 q 446 240 416 206 q 521 277 480 277 q 587 247 553 277 q 624 174 624 213 q 594 99 624 130 q 521 69 564 69 l 521 69 m 521 416 q 452 446 486 416 q 416 521 416 479 q 446 587 416 553 q 521 624 480 624 q 587 594 553 624 q 624 521 624 560 q 594 446 624 477 q 521 416 564 416 l 521 416 m 174 764 q 104 793 138 764 q 69 868 69 826 q 99 935 69 901 q 174 971 133 971 q 240 941 206 971 q 277 868 277 907 q 247 793 277 825 q 174 764 217 764 l 174 764 z "},"a":{"ha":694,"x_min":69,"x_max":277,"o":"m 174 764 q 104 793 138 764 q 69 868 69 826 q 99 935 69 901 q 174 971 133 971 q 240 941 206 971 q 277 868 277 907 q 247 793 277 825 q 174 764 217 764 l 174 764 z "},"b":{"ha":694,"x_min":69,"x_max":277,"o":"m 174 416 q 104 446 138 416 q 69 521 69 479 q 99 587 69 553 q 174 624 133 624 q 240 594 206 624 q 277 521 277 560 q 247 446 277 477 q 174 416 217 416 l 174 416 m 174 764 q 104 793 138 764 q 69 868 69 826 q 99 935 69 901 q 174 971 133 971 q 240 941 206 971 q 277 868 277 907 q 247 793 277 825 q 174 764 217 764 l 174 764 z "},"c":{"ha":1042,"x_min":69,"x_max":624,"o":"m 174 764 q 104 793 138 764 q 69 868 69 826 q 99 935 69 901 q 174 971 133 971 q 240 941 206 971 q 277 868 277 907 q 247 793 277 825 q 174 764 217 764 l 174 764 m 521 764 q 452 793 486 764 q 416 868 416 826 q 446 935 416 901 q 521 971 480 971 q 587 941 553 971 q 624 868 624 907 q 594 793 624 825 q 521 764 564 764 l 521 764 z "},"d":{"ha":1042,"x_min":69,"x_max":624,"o":"m 521 416 q 452 446 486 416 q 416 521 416 479 q 446 587 416 553 q 521 624 480 624 q 587 594 553 624 q 624 521 624 560 q 594 446 624 477 q 521 416 564 416 l 521 416 m 174 764 q 104 793 138 764 q 69 868 69 826 q 99 935 69 901 q 174 971 133 971 q 240 941 206 971 q 277 868 277 907 q 247 793 277 825 q 174 764 217 764 l 174 764 m 521 764 q 452 793 486 764 q 416 868 416 826 q 446 935 416 901 q 521 971 480 971 q 587 941 553 971 q 624 868 624 907 q 594 793 624 825 q 521 764 564 764 l 521 764 z "},"e":{"ha":1042,"x_min":69,"x_max":624,"o":"m 521 416 q 452 446 486 416 q 416 521 416 479 q 446 587 416 553 q 521 624 480 624 q 587 594 553 624 q 624 521 624 560 q 594 446 624 477 q 521 416 564 416 l 521 416 m 174 764 q 104 793 138 764 q 69 868 69 826 q 99 935 69 901 q 174 971 133 971 q 240 941 206 971 q 277 868 277 907 q 247 793 277 825 q 174 764 217 764 l 174 764 z "},"f":{"ha":1042,"x_min":69,"x_max":624,"o":"m 174 416 q 104 446 138 416 q 69 521 69 479 q 99 587 69 553 q 174 624 133 624 q 240 594 206 624 q 277 521 277 560 q 247 446 277 477 q 174 416 217 416 l 174 416 m 174 764 q 104 793 138 764 q 69 868 69 826 q 99 935 69 901 q 174 971 133 971 q 240 941 206 971 q 277 868 277 907 q 247 793 277 825 q 174 764 217 764 l 174 764 m 521 764 q 452 793 486 764 q 416 868 416 826 q 446 935 416 901 q 521 971 480 971 q 587 941 553 971 q 624 868 624 907 q 594 793 624 825 q 521 764 564 764 l 521 764 z "},"g":{"ha":1042,"x_min":69,"x_max":624,"o":"m 174 416 q 104 446 138 416 q 69 521 69 479 q 99 587 69 553 q 174 624 133 624 q 240 594 206 624 q 277 521 277 560 q 247 446 277 477 q 174 416 217 416 l 174 416 m 521 416 q 452 446 486 416 q 416 521 416 479 q 446 587 416 553 q 521 624 480 624 q 587 594 553 624 q 624 521 624 560 q 594 446 624 477 q 521 416 564 416 l 521 416 m 174 764 q 104 793 138 764 q 69 868 69 826 q 99 935 69 901 q 174 971 133 971 q 240 941 206 971 q 277 868 277 907 q 247 793 277 825 q 174 764 217 764 l 174 764 m 521 764 q 452 793 486 764 q 416 868 416 826 q 446 935 416 901 q 521 971 480 971 q 587 941 553 971 q 624 868 624 907 q 594 793 624 825 q 521 764 564 764 l 521 764 z "},"h":{"ha":1042,"x_min":69,"x_max":624,"o":"m 174 416 q 104 446 138 416 q 69 521 69 479 q 99 587 69 553 q 174 624 133 624 q 240 594 206 624 q 277 521 277 560 q 247 446 277 477 q 174 416 217 416 l 174 416 m 521 416 q 452 446 486 416 q 416 521 416 479 q 446 587 416 553 q 521 624 480 624 q 587 594 553 624 q 624 521 624 560 q 594 446 624 477 q 521 416 564 416 l 521 416 m 174 764 q 104 793 138 764 q 69 868 69 826 q 99 935 69 901 q 174 971 133 971 q 240 941 206 971 q 277 868 277 907 q 247 793 277 825 q 174 764 217 764 l 174 764 z "},"i":{"ha":1042,"x_min":69,"x_max":624,"o":"m 174 416 q 104 446 138 416 q 69 521 69 479 q 99 587 69 553 q 174 624 133 624 q 240 594 206 624 q 277 521 277 560 q 247 446 277 477 q 174 416 217 416 l 174 416 m 521 764 q 452 793 486 764 q 416 868 416 826 q 446 935 416 901 q 521 971 480 971 q 587 941 553 971 q 624 868 624 907 q 594 793 624 825 q 521 764 564 764 l 521 764 z "},"j":{"ha":1042,"x_min":69,"x_max":624,"o":"m 174 416 q 104 446 138 416 q 69 521 69 479 q 99 587 69 553 q 174 624 133 624 q 240 594 206 624 q 277 521 277 560 q 247 446 277 477 q 174 416 217 416 l 174 416 m 521 416 q 452 446 486 416 q 416 521 416 479 q 446 587 416 553 q 521 624 480 624 q 587 594 553 624 q 624 521 624 560 q 594 446 624 477 q 521 416 564 416 l 521 416 m 521 764 q 452 793 486 764 q 416 868 416 826 q 446 935 416 901 q 521 971 480 971 q 587 941 553 971 q 624 868 624 907 q 594 793 624 825 q 521 764 564 764 l 521 764 z "},"k":{"ha":694,"x_min":69,"x_max":277,"o":"m 174 69 q 104 99 138 69 q 69 174 69 132 q 99 240 69 206 q 174 277 133 277 q 240 247 206 277 q 277 174 277 213 q 247 99 277 130 q 174 69 217 69 l 174 69 m 174 764 q 104 793 138 764 q 69 868 69 826 q 99 935 69 901 q 174 971 133 971 q 240 941 206 971 q 277 868 277 907 q 247 793 277 825 q 174 764 217 764 l 174 764 z "},"l":{"ha":694,"x_min":69,"x_max":277,"o":"m 174 69 q 104 99 138 69 q 69 174 69 132 q 99 240 69 206 q 174 277 133 277 q 240 247 206 277 q 277 174 277 213 q 247 99 277 130 q 174 69 217 69 l 174 69 m 174 416 q 104 446 138 416 q 69 521 69 479 q 99 587 69 553 q 174 624 133 624 q 240 594 206 624 q 277 521 277 560 q 247 446 277 477 q 174 416 217 416 l 174 416 m 174 764 q 104 793 138 764 q 69 868 69 826 q 99 935 69 901 q 174 971 133 971 q 240 941 206 971 q 277 868 277 907 q 247 793 277 825 q 174 764 217 764 l 174 764 z "},"m":{"ha":1042,"x_min":69,"x_max":624,"o":"m 174 69 q 104 99 138 69 q 69 174 69 132 q 99 240 69 206 q 174 277 133 277 q 240 247 206 277 q 277 174 277 213 q 247 99 277 130 q 174 69 217 69 l 174 69 m 174 764 q 104 793 138 764 q 69 868 69 826 q 99 935 69 901 q 174 971 133 971 q 240 941 206 971 q 277 868 277 907 q 247 793 277 825 q 174 764 217 764 l 174 764 m 521 764 q 452 793 486 764 q 416 868 416 826 q 446 935 416 901 q 521 971 480 971 q 587 941 553 971 q 624 868 624 907 q 594 793 624 825 q 521 764 564 764 l 521 764 z "},"n":{"ha":1042,"x_min":69,"x_max":624,"o":"m 174 69 q 104 99 138 69 q 69 174 69 132 q 99 240 69 206 q 174 277 133 277 q 240 247 206 277 q 277 174 277 213 q 247 99 277 130 q 174 69 217 69 l 174 69 m 521 416 q 452 446 486 416 q 416 521 416 479 q 446 587 416 553 q 521 624 480 624 q 587 594 553 624 q 624 521 624 560 q 594 446 624 477 q 521 416 564 416 l 521 416 m 174 764 q 104 793 138 764 q 69 868 69 826 q 99 935 69 901 q 174 971 133 971 q 240 941 206 971 q 277 868 277 907 q 247 793 277 825 q 174 764 217 764 l 174 764 m 521 764 q 452 793 486 764 q 416 868 416 826 q 446 935 416 901 q 521 971 480 971 q 587 941 553 971 q 624 868 624 907 q 594 793 624 825 q 521 764 564 764 l 521 764 z "},"o":{"ha":1042,"x_min":69,"x_max":624,"o":"m 174 69 q 104 99 138 69 q 69 174 69 132 q 99 240 69 206 q 174 277 133 277 q 240 247 206 277 q 277 174 277 213 q 247 99 277 130 q 174 69 217 69 l 174 69 m 521 416 q 452 446 486 416 q 416 521 416 479 q 446 587 416 553 q 521 624 480 624 q 587 594 553 624 q 624 521 624 560 q 594 446 624 477 q 521 416 564 416 l 521 416 m 174 764 q 104 793 138 764 q 69 868 69 826 q 99 935 69 901 q 174 971 133 971 q 240 941 206 971 q 277 868 277 907 q 247 793 277 825 q 174 764 217 764 l 174 764 z "},"p":{"ha":1042,"x_min":69,"x_max":624,"o":"m 174 69 q 104 99 138 69 q 69 174 69 132 q 99 240 69 206 q 174 277 133 277 q 240 247 206 277 q 277 174 277 213 q 247 99 277 130 q 174 69 217 69 l 174 69 m 174 416 q 104 446 138 416 q 69 521 69 479 q 99 587 69 553 q 174 624 133 624 q 240 594 206 624 q 277 521 277 560 q 247 446 277 477 q 174 416 217 416 l 174 416 m 174 764 q 104 793 138 764 q 69 868 69 826 q 99 935 69 901 q 174 971 133 971 q 240 941 206 971 q 277 868 277 907 q 247 793 277 825 q 174 764 217 764 l 174 764 m 521 764 q 452 793 486 764 q 416 868 416 826 q 446 935 416 901 q 521 971 480 971 q 587 941 553 971 q 624 868 624 907 q 594 793 624 825 q 521 764 564 764 l 521 764 z "},"q":{"ha":1042,"x_min":69,"x_max":624,"o":"m 174 69 q 104 99 138 69 q 69 174 69 132 q 99 240 69 206 q 174 277 133 277 q 240 247 206 277 q 277 174 277 213 q 247 99 277 130 q 174 69 217 69 l 174 69 m 174 416 q 104 446 138 416 q 69 521 69 479 q 99 587 69 553 q 174 624 133 624 q 240 594 206 624 q 277 521 277 560 q 247 446 277 477 q 174 416 217 416 l 174 416 m 521 416 q 452 446 486 416 q 416 521 416 479 q 446 587 416 553 q 521 624 480 624 q 587 594 553 624 q 624 521 624 560 q 594 446 624 477 q 521 416 564 416 l 521 416 m 174 764 q 104 793 138 764 q 69 868 69 826 q 99 935 69 901 q 174 971 133 971 q 240 941 206 971 q 277 868 277 907 q 247 793 277 825 q 174 764 217 764 l 174 764 m 521 764 q 452 793 486 764 q 416 868 416 826 q 446 935 416 901 q 521 971 480 971 q 587 941 553 971 q 624 868 624 907 q 594 793 624 825 q 521 764 564 764 l 521 764 z "},"r":{"ha":1042,"x_min":69,"x_max":624,"o":"m 174 69 q 104 99 138 69 q 69 174 69 132 q 99 240 69 206 q 174 277 133 277 q 240 247 206 277 q 277 174 277 213 q 247 99 277 130 q 174 69 217 69 l 174 69 m 174 416 q 104 446 138 416 q 69 521 69 479 q 99 587 69 553 q 174 624 133 624 q 240 594 206 624 q 277 521 277 560 q 247 446 277 477 q 174 416 217 416 l 174 416 m 521 416 q 452 446 486 416 q 416 521 416 479 q 446 587 416 553 q 521 624 480 624 q 587 594 553 624 q 624 521 624 560 q 594 446 624 477 q 521 416 564 416 l 521 416 m 174 764 q 104 793 138 764 q 69 868 69 826 q 99 935 69 901 q 174 971 133 971 q 240 941 206 971 q 277 868 277 907 q 247 793 277 825 q 174 764 217 764 l 174 764 z "},"s":{"ha":1042,"x_min":69,"x_max":624,"o":"m 174 69 q 104 99 138 69 q 69 174 69 132 q 99 240 69 206 q 174 277 133 277 q 240 247 206 277 q 277 174 277 213 q 247 99 277 130 q 174 69 217 69 l 174 69 m 174 416 q 104 446 138 416 q 69 521 69 479 q 99 587 69 553 q 174 624 133 624 q 240 594 206 624 q 277 521 277 560 q 247 446 277 477 q 174 416 217 416 l 174 416 m 521 764 q 452 793 486 764 q 416 868 416 826 q 446 935 416 901 q 521 971 480 971 q 587 941 553 971 q 624 868 624 907 q 594 793 624 825 q 521 764 564 764 l 521 764 z "},"t":{"ha":1042,"x_min":69,"x_max":624,"o":"m 174 69 q 104 99 138 69 q 69 174 69 132 q 99 240 69 206 q 174 277 133 277 q 240 247 206 277 q 277 174 277 213 q 247 99 277 130 q 174 69 217 69 l 174 69 m 174 416 q 104 446 138 416 q 69 521 69 479 q 99 587 69 553 q 174 624 133 624 q 240 594 206 624 q 277 521 277 560 q 247 446 277 477 q 174 416 217 416 l 174 416 m 521 416 q 452 446 486 416 q 416 521 416 479 q 446 587 416 553 q 521 624 480 624 q 587 594 553 624 q 624 521 624 560 q 594 446 624 477 q 521 416 564 416 l 521 416 m 521 764 q 452 793 486 764 q 416 868 416 826 q 446 935 416 901 q 521 971 480 971 q 587 941 553 971 q 624 868 624 907 q 594 793 624 825 q 521 764 564 764 l 521 764 z "},"u":{"ha":1042,"x_min":69,"x_max":624,"o":"m 174 69 q 104 99 138 69 q 69 174 69 132 q 99 240 69 206 q 174 277 133 277 q 240 247 206 277 q 277 174 277 213 q 247 99 277 130 q 174 69 217 69 l 174 69 m 521 69 q 452 99 486 69 q 416 174 416 132 q 446 240 416 206 q 521 277 480 277 q 587 247 553 277 q 624 174 624 213 q 594 99 624 130 q 521 69 564 69 l 521 69 m 174 764 q 104 793 138 764 q 69 868 69 826 q 99 935 69 901 q 174 971 133 971 q 240 941 206 971 q 277 868 277 907 q 247 793 277 825 q 174 764 217 764 l 174 764 z "},"v":{"ha":1042,"x_min":69,"x_max":624,"o":"m 174 69 q 104 99 138 69 q 69 174 69 132 q 99 240 69 206 q 174 277 133 277 q 240 247 206 277 q 277 174 277 213 q 247 99 277 130 q 174 69 217 69 l 174 69 m 521 69 q 452 99 486 69 q 416 174 416 132 q 446 240 416 206 q 521 277 480 277 q 587 247 553 277 q 624 174 624 213 q 594 99 624 130 q 521 69 564 69 l 521 69 m 174 416 q 104 446 138 416 q 69 521 69 479 q 99 587 69 553 q 174 624 133 624 q 240 594 206 624 q 277 521 277 560 q 247 446 277 477 q 174 416 217 416 l 174 416 m 174 764 q 104 793 138 764 q 69 868 69 826 q 99 935 69 901 q 174 971 133 971 q 240 941 206 971 q 277 868 277 907 q 247 793 277 825 q 174 764 217 764 l 174 764 z "},"w":{"ha":1042,"x_min":69,"x_max":624,"o":"m 521 69 q 452 99 486 69 q 416 174 416 132 q 446 240 416 206 q 521 277 480 277 q 587 247 553 277 q 624 174 624 213 q 594 99 624 130 q 521 69 564 69 l 521 69 m 174 416 q 104 446 138 416 q 69 521 69 479 q 99 587 69 553 q 174 624 133 624 q 240 594 206 624 q 277 521 277 560 q 247 446 277 477 q 174 416 217 416 l 174 416 m 521 416 q 452 446 486 416 q 416 521 416 479 q 446 587 416 553 q 521 624 480 624 q 587 594 553 624 q 624 521 624 560 q 594 446 624 477 q 521 416 564 416 l 521 416 m 521 764 q 452 793 486 764 q 416 868 416 826 q 446 935 416 901 q 521 971 480 971 q 587 941 553 971 q 624 868 624 907 q 594 793 624 825 q 521 764 564 764 l 521 764 z "},"x":{"ha":1042,"x_min":69,"x_max":624,"o":"m 174 69 q 104 99 138 69 q 69 174 69 132 q 99 240 69 206 q 174 277 133 277 q 240 247 206 277 q 277 174 277 213 q 247 99 277 130 q 174 69 217 69 l 174 69 m 521 69 q 452 99 486 69 q 416 174 416 132 q 446 240 416 206 q 521 277 480 277 q 587 247 553 277 q 624 174 624 213 q 594 99 624 130 q 521 69 564 69 l 521 69 m 174 764 q 104 793 138 764 q 69 868 69 826 q 99 935 69 901 q 174 971 133 971 q 240 941 206 971 q 277 868 277 907 q 247 793 277 825 q 174 764 217 764 l 174 764 m 521 764 q 452 793 486 764 q 416 868 416 826 q 446 935 416 901 q 521 971 480 971 q 587 941 553 971 q 624 868 624 907 q 594 793 624 825 q 521 764 564 764 l 521 764 z "},"y":{"ha":1042,"x_min":69,"x_max":624,"o":"m 174 69 q 104 99 138 69 q 69 174 69 132 q 99 240 69 206 q 174 277 133 277 q 240 247 206 277 q 277 174 277 213 q 247 99 277 130 q 174 69 217 69 l 174 69 m 521 69 q 452 99 486 69 q 416 174 416 132 q 446 240 416 206 q 521 277 480 277 q 587 247 553 277 q 624 174 624 213 q 594 99 624 130 q 521 69 564 69 l 521 69 m 521 416 q 452 446 486 416 q 416 521 416 479 q 446 587 416 553 q 521 624 480 624 q 587 594 553 624 q 624 521 624 560 q 594 446 624 477 q 521 416 564 416 l 521 416 m 174 764 q 104 793 138 764 q 69 868 69 826 q 99 935 69 901 q 174 971 133 971 q 240 941 206 971 q 277 868 277 907 q 247 793 277 825 q 174 764 217 764 l 174 764 m 521 764 q 452 793 486 764 q 416 868 416 826 q 446 935 416 901 q 521 971 480 971 q 587 941 553 971 q 624 868 624 907 q 594 793 624 825 q 521 764 564 764 l 521 764 z "},"z":{"ha":1042,"x_min":69,"x_max":624,"o":"m 174 69 q 104 99 138 69 q 69 174 69 132 q 99 240 69 206 q 174 277 133 277 q 240 247 206 277 q 277 174 277 213 q 247 99 277 130 q 174 69 217 69 l 174 69 m 521 69 q 452 99 486 69 q 416 174 416 132 q 446 240 416 206 q 521 277 480 277 q 587 247 553 277 q 624 174 624 213 q 594 99 624 130 q 521 69 564 69 l 521 69 m 521 416 q 452 446 486 416 q 416 521 416 479 q 446 587 416 553 q 521 624 480 624 q 587 594 553 624 q 624 521 624 560 q 594 446 624 477 q 521 416 564 416 l 521 416 m 174 764 q 104 793 138 764 q 69 868 69 826 q 99 935 69 901 q 174 971 133 971 q 240 941 206 971 q 277 868 277 907 q 247 793 277 825 q 174 764 217 764 l 174 764 z "},"“":{"ha":1042,"x_min":69,"x_max":624,"o":"m 174 69 q 104 99 138 69 q 69 174 69 132 q 99 240 69 206 q 174 277 133 277 q 240 247 206 277 q 277 174 277 213 q 247 99 277 130 q 174 69 217 69 l 174 69 m 521 69 q 452 99 486 69 q 416 174 416 132 q 446 240 416 206 q 521 277 480 277 q 587 247 553 277 q 624 174 624 213 q 594 99 624 130 q 521 69 564 69 l 521 69 m 174 416 q 104 446 138 416 q 69 521 69 479 q 99 587 69 553 q 174 624 133 624 q 240 594 206 624 q 277 521 277 560 q 247 446 277 477 q 174 416 217 416 l 174 416 z "},"”":{"ha":1042,"x_min":69,"x_max":624,"o":"m 174 69 q 104 99 138 69 q 69 174 69 132 q 99 240 69 206 q 174 277 133 277 q 240 247 206 277 q 277 174 277 213 q 247 99 277 130 q 174 69 217 69 l 174 69 m 521 69 q 452 99 486 69 q 416 174 416 132 q 446 240 416 206 q 521 277 480 277 q 587 247 553 277 q 624 174 624 213 q 594 99 624 130 q 521 69 564 69 l 521 69 m 521 416 q 452 446 486 416 q 416 521 416 479 q 446 587 416 553 q 521 624 480 624 q 587 594 553 624 q 624 521 624 560 q 594 446 624 477 q 521 416 564 416 l 521 416 z "}}}
